<?xml version="1.0" standalone="no"?>
<!DOCTYPE svg PUBLIC "-//W3C//DTD SVG 1.1//EN" "http://www.w3.org/Graphics/SVG/1.1/DTD/svg11.dtd" >
<svg xmlns="http://www.w3.org/2000/svg" xmlns:xlink="http://www.w3.org/1999/xlink" version="1.1">
<metadata>
Created by FontForge 20201107 at Sat Mar  2 22:24:31 2013
 By Unknown
Copyright 2013 Adobe Systems Incorporated. All rights reserved.
</metadata>
<defs>
<font id="RAINFALL-Black" horiz-adv-x="290" >
  <font-face 
    font-family="RAINFALL"
    font-weight="900"
    font-stretch="normal"
    units-per-em="1000"
    panose-1="0 0 0 0 0 0 0 0 0 0"
    ascent="750"
    descent="-250"
    x-height="699"
    cap-height="700"
    bbox="2 -150 868 717"
    underline-thickness="50"
    underline-position="-100"
    unicode-range="U+0020-007A"
  />
<missing-glyph 
 />
    <glyph glyph-name=".notdef" 
 />
    <glyph glyph-name=".null" horiz-adv-x="0" 
 />
    <glyph glyph-name="nonmarkingreturn" horiz-adv-x="333" 
 />
    <glyph glyph-name="space" unicode=" " 
 />
    <glyph glyph-name="A" unicode="A" horiz-adv-x="727" 
d="M431 147h-139l70 -134zM362 309l-130 -309h-230l362 717l362 -717h-235z" />
    <glyph glyph-name="B" unicode="B" horiz-adv-x="607" 
d="M375 359q8 0 22 -1t50 -10.5t63 -26t49.5 -52.5t22.5 -85q0 -52 -21.5 -89.5t-52 -55t-61.5 -27.5t-53 -11l-21 -1h-314v699h292q4 0 11 -0.5t28 -3.5t39.5 -9t41.5 -18.5t39.5 -29t28 -44t11.5 -61.5q0 -49 -20.5 -84.5t-49 -52t-57.5 -26t-49 -10.5l-21 -1h22zM242 563
v-95h94h5t11 2.5t14 7t11 14.5t5 25q0 21 -11.5 32.5t-22.5 12.5l-12 1h-94zM347 144q5 0 13.5 1t22 13.5t13.5 35.5t-12 35.5t-24 13.5l-13 1h-105v-100h105z" />
    <glyph glyph-name="C" unicode="C" horiz-adv-x="665" 
d="M504 238l141 -141q-104 -106 -255 -106q-149 0 -254.5 105.5t-105.5 254.5t105.5 254.5t254.5 105.5t255 -106l-143 -142q-45 52 -112 52q-62 0 -108.5 -48t-46.5 -116q0 -72 46 -118t109 -46q69 0 114 51z" />
    <glyph glyph-name="D" unicode="D" horiz-adv-x="656" 
d="M370 701q5 0 14 -1t35 -7.5t50 -18.5t53 -38.5t49.5 -62t35 -93.5t14.5 -130q0 -71 -14 -129t-36.5 -93.5t-50 -62t-55 -38.5t-50 -18.5t-36.5 -7.5l-14 -1h-99h-1h-206v701h206h1h104zM331 169q3 0 9 1.5t20.5 11.5t26 27t20.5 54t9 87t-9 87t-21 54.5t-24.5 27
t-21.5 11.5l-9 1h-66v-362h66z" />
    <glyph glyph-name="E" unicode="E" horiz-adv-x="580" 
d="M528 531h-263v-87h263v-169h-263v-106h263v-169h-263h-203h-1v700h1h203h263v-169z" />
    <glyph glyph-name="F" unicode="F" horiz-adv-x="569" 
d="M519 531h-255v-87h255v-169h-255v-275h-204v700h1h203h255v-169z" />
    <glyph glyph-name="G" unicode="G" horiz-adv-x="770" 
d="M738 414q1 -10 1 -63q0 -150 -102.5 -255.5t-251.5 -105.5t-251.5 105.5t-102.5 255.5q0 149 105.5 254.5t254.5 105.5q133 0 234 -86l-142 -142q-42 32 -92 32q-62 0 -108.5 -48t-46.5 -116q0 -73 43 -118.5t106 -45.5q36 0 70.5 15.5t55.5 42.5h-110v169h319h18z" />
    <glyph glyph-name="H" unicode="H" horiz-adv-x="731" 
d="M467 700h204v-700h-204v255h-203v-255h-204v700h204v-276h203v276z" />
    <glyph glyph-name="I" unicode="I" horiz-adv-x="325" 
d="M265 700v-700h-204v700h204z" />
    <glyph glyph-name="J" unicode="J" horiz-adv-x="556" 
d="M300 700h204v-449q0 -49 -15.5 -93.5t-48 -83.5t-90 -62t-133.5 -23q-52 0 -102.5 22.5t-74.5 44.5l-25 23l108 113q3 -4 8.5 -9.5t27 -15t47.5 -9.5q45 0 68.5 25t24.5 50l1 25v442z" />
    <glyph glyph-name="K" unicode="K" horiz-adv-x="694" 
d="M664 0h-204l-196 290v-290h-204v700h204v-275l169 275h198l-209 -341z" />
    <glyph glyph-name="L" unicode="L" horiz-adv-x="574" 
d="M264 169h306v-169h-306h-203h-1v700h204v-531z" />
    <glyph glyph-name="M" unicode="M" horiz-adv-x="842" 
d="M252 0h-192v712l361 -421l361 421v-712h-192v232l-169 -169l-170 169z" />
    <glyph glyph-name="N" unicode="N" horiz-adv-x="743" 
d="M60 0v716l428 -319l-1 302h196v-708l-441 328v-319h-182z" />
    <glyph glyph-name="O" unicode="O" horiz-adv-x="771" 
d="M385 711q149 0 254.5 -105.5t105.5 -254.5t-105.5 -254.5t-254.5 -105.5t-254.5 105.5t-105.5 254.5t105.5 254.5t254.5 105.5zM385 187q63 0 109 46t46 118q0 69 -46.5 117t-108.5 48t-108.5 -48t-46.5 -117q0 -72 46 -118t109 -46z" />
    <glyph glyph-name="P" unicode="P" horiz-adv-x="639" 
d="M407 700q4 0 11.5 -0.5t29 -5t41 -12t43.5 -24t41 -39t29 -59.5t12 -82q0 -62 -21 -108t-51 -67t-60.5 -33t-51.5 -14l-21 -1h-144v-255h-204v700h202h144zM363 424q5 0 12.5 1.5t20 15.5t12.5 39q0 23 -11 35.5t-23 14.5l-11 1h-98v-107h98z" />
    <glyph glyph-name="Q" unicode="Q" horiz-adv-x="778" 
d="M747 349q0 -83 -36 -157t-99 -124l122 -218h-204l-81 145q-30 -6 -63 -6q-149 0 -254.5 105.5t-105.5 254.5t105.5 254.5t254.5 105.5t255 -105.5t106 -254.5zM231 349q0 -72 46 -118t109 -46t109 46t46 118q0 69 -46 116.5t-109 47.5t-109 -47.5t-46 -116.5z" />
    <glyph glyph-name="R" unicode="R" horiz-adv-x="683" 
d="M647 0h-218l-129 255h-36v-255h-204v700h202h144q4 0 11.5 -0.5t29 -5t41 -12t43 -24.5t41 -39.5t29 -59t11.5 -82.5q0 -142 -107 -197zM264 531v-107h98q2 0 5 0.5t10.5 3.5t13.5 8t11 16.5t5 26.5q0 23 -11.5 36t-22.5 15l-11 1h-98z" />
    <glyph glyph-name="S" unicode="S" horiz-adv-x="517" 
d="M493 550l-136 -63q-2 3 -4.5 7.5t-12 15.5t-20 20t-26 16t-30.5 7q-24 1 -38.5 -12.5t-15.5 -38.5q0 -16 10.5 -27.5t19.5 -16t27 -10.5q94 -34 134 -62q92 -64 92 -171q0 -110 -68 -167t-160 -57q-45 0 -86 14.5t-68 35.5t-47.5 42t-29.5 35l-9 15l128 76
q18 -24 49.5 -41t60.5 -17q23 0 38.5 14.5t15.5 34.5q0 18 -15 31.5t-26 18t-40 14.5q-27 9 -44.5 16.5t-48 27t-49.5 43t-34 63.5t-15 89q0 84 65 145.5t155 61.5q49 0 90.5 -16.5t65.5 -40t41.5 -47t23.5 -40.5z" />
    <glyph glyph-name="T" unicode="T" horiz-adv-x="548" 
d="M528 700v-169h-153v-531h-204v531h-152v169h152h204h153z" />
    <glyph glyph-name="U" unicode="U" horiz-adv-x="696" 
d="M51 700h204v-432q2 -1 0 -10.5t3.5 -24t13 -29t28 -24.5t49.5 -10t49 9t28 22t12.5 26t3.5 22v9v442h204v-450q0 -48 -15.5 -91.5t-47.5 -81t-89.5 -60t-133.5 -22.5q-150 0 -230 73.5t-80 196.5z" />
    <glyph glyph-name="V" unicode="V" horiz-adv-x="744" 
d="M371 403l130 297h235l-365 -706l-364 706h235z" />
    <glyph glyph-name="W" unicode="W" horiz-adv-x="882" 
d="M14 700h198l90 -296l136 271l141 -277l91 302h198l-256 -712l-174 344l-175 -344z" />
    <glyph glyph-name="X" unicode="X" horiz-adv-x="644" 
d="M30 699h207l85 -198l86 198h207l-183 -337l183 -362h-207l-86 193l-85 -193h-207l182 362z" />
    <glyph glyph-name="Y" unicode="Y" horiz-adv-x="646" 
d="M221 319l-196 380h207l92 -214l91 214h207l-197 -380v-319h-204v319z" />
    <glyph glyph-name="Z" unicode="Z" horiz-adv-x="619" 
d="M45 699h528l-258 -530h258v-169h-528l258 531h-258v168z" />
    <glyph glyph-name="a" unicode="a" horiz-adv-x="727" 
d="M431 147h-139l70 -134zM362 309l-130 -309h-230l362 717l362 -717h-235z" />
    <glyph glyph-name="b" unicode="b" horiz-adv-x="607" 
d="M375 359q8 0 22 -1t50 -10.5t63 -26t49.5 -52.5t22.5 -85q0 -52 -21.5 -89.5t-52 -55t-61.5 -27.5t-53 -11l-21 -1h-314v699h292q4 0 11 -0.5t28 -3.5t39.5 -9t41.5 -18.5t39.5 -29t28 -44t11.5 -61.5q0 -49 -20.5 -84.5t-49 -52t-57.5 -26t-49 -10.5l-21 -1h22zM242 563
v-95h94h5t11 2.5t14 7t11 14.5t5 25q0 21 -11.5 32.5t-22.5 12.5l-12 1h-94zM347 144q5 0 13.5 1t22 13.5t13.5 35.5t-12 35.5t-24 13.5l-13 1h-105v-100h105z" />
    <glyph glyph-name="c" unicode="c" horiz-adv-x="665" 
d="M504 238l141 -141q-104 -106 -255 -106q-149 0 -254.5 105.5t-105.5 254.5t105.5 254.5t254.5 105.5t255 -106l-143 -142q-45 52 -112 52q-62 0 -108.5 -48t-46.5 -116q0 -72 46 -118t109 -46q69 0 114 51z" />
    <glyph glyph-name="d" unicode="d" horiz-adv-x="656" 
d="M370 701q5 0 14 -1t35 -7.5t50 -18.5t53 -38.5t49.5 -62t35 -93.5t14.5 -130q0 -71 -14 -129t-36.5 -93.5t-50 -62t-55 -38.5t-50 -18.5t-36.5 -7.5l-14 -1h-99h-1h-206v701h206h1h104zM331 169q3 0 9 1.5t20.5 11.5t26 27t20.5 54t9 87t-9 87t-21 54.5t-24.5 27
t-21.5 11.5l-9 1h-66v-362h66z" />
    <glyph glyph-name="e" unicode="e" horiz-adv-x="580" 
d="M528 531h-263v-87h263v-169h-263v-106h263v-169h-263h-203h-1v700h1h203h263v-169z" />
    <glyph glyph-name="f" unicode="f" horiz-adv-x="569" 
d="M519 531h-255v-87h255v-169h-255v-275h-204v700h1h203h255v-169z" />
    <glyph glyph-name="g" unicode="g" horiz-adv-x="770" 
d="M738 414q1 -10 1 -63q0 -150 -102.5 -255.5t-251.5 -105.5t-251.5 105.5t-102.5 255.5q0 149 105.5 254.5t254.5 105.5q133 0 234 -86l-142 -142q-42 32 -92 32q-62 0 -108.5 -48t-46.5 -116q0 -73 43 -118.5t106 -45.5q36 0 70.5 15.5t55.5 42.5h-110v169h319h18z" />
    <glyph glyph-name="h" unicode="h" horiz-adv-x="731" 
d="M467 700h204v-700h-204v255h-203v-255h-204v700h204v-276h203v276z" />
    <glyph glyph-name="i" unicode="i" horiz-adv-x="325" 
d="M265 700v-700h-204v700h204z" />
    <glyph glyph-name="j" unicode="j" horiz-adv-x="556" 
d="M300 700h204v-449q0 -49 -15.5 -93.5t-48 -83.5t-90 -62t-133.5 -23q-52 0 -102.5 22.5t-74.5 44.5l-25 23l108 113q3 -4 8.5 -9.5t27 -15t47.5 -9.5q45 0 68.5 25t24.5 50l1 25v442z" />
    <glyph glyph-name="k" unicode="k" horiz-adv-x="694" 
d="M664 0h-204l-196 290v-290h-204v700h204v-275l169 275h198l-209 -341z" />
    <glyph glyph-name="l" unicode="l" horiz-adv-x="574" 
d="M264 169h306v-169h-306h-203h-1v700h204v-531z" />
    <glyph glyph-name="m" unicode="m" horiz-adv-x="842" 
d="M252 0h-192v712l361 -421l361 421v-712h-192v232l-169 -169l-170 169z" />
    <glyph glyph-name="n" unicode="n" horiz-adv-x="743" 
d="M60 0v716l428 -319l-1 302h196v-708l-441 328v-319h-182z" />
    <glyph glyph-name="o" unicode="o" horiz-adv-x="771" 
d="M385 711q149 0 254.5 -105.5t105.5 -254.5t-105.5 -254.5t-254.5 -105.5t-254.5 105.5t-105.5 254.5t105.5 254.5t254.5 105.5zM385 187q63 0 109 46t46 118q0 69 -46.5 117t-108.5 48t-108.5 -48t-46.5 -117q0 -72 46 -118t109 -46z" />
    <glyph glyph-name="p" unicode="p" horiz-adv-x="639" 
d="M407 700q4 0 11.5 -0.5t29 -5t41 -12t43.5 -24t41 -39t29 -59.5t12 -82q0 -62 -21 -108t-51 -67t-60.5 -33t-51.5 -14l-21 -1h-144v-255h-204v700h202h144zM363 424q5 0 12.5 1.5t20 15.5t12.5 39q0 23 -11 35.5t-23 14.5l-11 1h-98v-107h98z" />
    <glyph glyph-name="q" unicode="q" horiz-adv-x="778" 
d="M747 349q0 -83 -36 -157t-99 -124l122 -218h-204l-81 145q-30 -6 -63 -6q-149 0 -254.5 105.5t-105.5 254.5t105.5 254.5t254.5 105.5t255 -105.5t106 -254.5zM231 349q0 -72 46 -118t109 -46t109 46t46 118q0 69 -46 116.5t-109 47.5t-109 -47.5t-46 -116.5z" />
    <glyph glyph-name="r" unicode="r" horiz-adv-x="683" 
d="M647 0h-218l-129 255h-36v-255h-204v700h202h144q4 0 11.5 -0.5t29 -5t41 -12t43 -24.5t41 -39.5t29 -59t11.5 -82.5q0 -142 -107 -197zM264 531v-107h98q2 0 5 0.5t10.5 3.5t13.5 8t11 16.5t5 26.5q0 23 -11.5 36t-22.5 15l-11 1h-98z" />
    <glyph glyph-name="s" unicode="s" horiz-adv-x="517" 
d="M493 550l-136 -63q-2 3 -4.5 7.5t-12 15.5t-20 20t-26 16t-30.5 7q-24 1 -38.5 -12.5t-15.5 -38.5q0 -16 10.5 -27.5t19.5 -16t27 -10.5q94 -34 134 -62q92 -64 92 -171q0 -110 -68 -167t-160 -57q-45 0 -86 14.5t-68 35.5t-47.5 42t-29.5 35l-9 15l128 76
q18 -24 49.5 -41t60.5 -17q23 0 38.5 14.5t15.5 34.5q0 18 -15 31.5t-26 18t-40 14.5q-27 9 -44.5 16.5t-48 27t-49.5 43t-34 63.5t-15 89q0 84 65 145.5t155 61.5q49 0 90.5 -16.5t65.5 -40t41.5 -47t23.5 -40.5z" />
    <glyph glyph-name="t" unicode="t" horiz-adv-x="548" 
d="M528 700v-169h-153v-531h-204v531h-152v169h152h204h153z" />
    <glyph glyph-name="u" unicode="u" horiz-adv-x="696" 
d="M51 700h204v-432q2 -1 0 -10.5t3.5 -24t13 -29t28 -24.5t49.5 -10t49 9t28 22t12.5 26t3.5 22v9v442h204v-450q0 -48 -15.5 -91.5t-47.5 -81t-89.5 -60t-133.5 -22.5q-150 0 -230 73.5t-80 196.5z" />
    <glyph glyph-name="v" unicode="v" horiz-adv-x="744" 
d="M371 403l130 297h235l-365 -706l-364 706h235z" />
    <glyph glyph-name="w" unicode="w" horiz-adv-x="882" 
d="M14 700h198l90 -296l136 271l141 -277l91 302h198l-256 -712l-174 344l-175 -344z" />
    <glyph glyph-name="x" unicode="x" horiz-adv-x="644" 
d="M30 699h207l85 -198l86 198h207l-183 -337l183 -362h-207l-86 193l-85 -193h-207l182 362z" />
    <glyph glyph-name="y" unicode="y" horiz-adv-x="646" 
d="M221 319l-196 380h207l92 -214l91 214h207l-197 -380v-319h-204v319z" />
    <glyph glyph-name="z" unicode="z" horiz-adv-x="619" 
d="M45 699h528l-258 -530h258v-169h-528l258 531h-258v168z" />
    <glyph glyph-name="CR" 
 />
    </font>
</defs>
</svg>
